<mxfile host="drawio-plugin" modified="2022-06-20T07:08:42.447Z" agent="5.0 (Windows NT 6.2; Win64; x64) AppleWebKit/537.36 (KHTML, like Gecko) Chrome/89.0.4389.114 Safari/537.36" etag="i78riDIq5n5qSG9bU9lA" version="15.5.4" type="embed"><diagram id="XU7jHyTCbOE4DCWEQpca" name="Page-1"><mxGraphModel dx="1525" dy="2264" grid="1" gridSize="10" guides="1" tooltips="1" connect="1" arrows="1" fold="1" page="1" pageScale="1" pageWidth="827" pageHeight="1169" math="0" shadow="0"><root><mxCell id="0"/><mxCell id="1" parent="0"/><mxCell id="XecausT98CZ5SgeFrqNB-6" value="" style="edgeStyle=orthogonalEdgeStyle;rounded=0;orthogonalLoop=1;jettySize=auto;html=1;endArrow=block;endFill=0;endSize=17;entryX=0.5;entryY=0;entryDx=0;entryDy=0;entryPerimeter=0;" parent="1" target="XecausT98CZ5SgeFrqNB-4" edge="1"><mxGeometry relative="1" as="geometry"><mxPoint x="55" y="210" as="sourcePoint"/><mxPoint x="55" y="250" as="targetPoint"/></mxGeometry></mxCell><mxCell id="5" style="edgeStyle=none;rounded=0;orthogonalLoop=1;jettySize=auto;html=1;entryX=0;entryY=0.5;entryDx=0;entryDy=0;endArrow=none;endFill=0;" parent="1" source="XecausT98CZ5SgeFrqNB-3" target="2" edge="1"><mxGeometry relative="1" as="geometry"/></mxCell><mxCell id="22" style="edgeStyle=none;rounded=0;orthogonalLoop=1;jettySize=auto;html=1;endArrow=none;endFill=0;" parent="1" source="XecausT98CZ5SgeFrqNB-3" target="20" edge="1"><mxGeometry relative="1" as="geometry"/></mxCell><mxCell id="23" style="edgeStyle=none;rounded=0;orthogonalLoop=1;jettySize=auto;html=1;endArrow=none;endFill=0;" parent="1" source="XecausT98CZ5SgeFrqNB-3" target="21" edge="1"><mxGeometry relative="1" as="geometry"/></mxCell><mxCell id="XecausT98CZ5SgeFrqNB-3" value="Student" style="shape=umlActor;verticalLabelPosition=bottom;verticalAlign=top;html=1;outlineConnect=0;" parent="1" vertex="1"><mxGeometry x="30" y="130" width="30" height="60" as="geometry"/></mxCell><mxCell id="XecausT98CZ5SgeFrqNB-4" value="Benutzer" style="shape=umlActor;verticalLabelPosition=bottom;verticalAlign=top;html=1;outlineConnect=0;" parent="1" vertex="1"><mxGeometry x="40" y="260" width="30" height="60" as="geometry"/></mxCell><mxCell id="4" style="rounded=0;orthogonalLoop=1;jettySize=auto;html=1;endArrow=none;endFill=0;" parent="1" source="XecausT98CZ5SgeFrqNB-5" target="3" edge="1"><mxGeometry relative="1" as="geometry"/></mxCell><mxCell id="7" style="edgeStyle=none;rounded=0;orthogonalLoop=1;jettySize=auto;html=1;endArrow=none;endFill=0;" parent="1" source="XecausT98CZ5SgeFrqNB-5" target="6" edge="1"><mxGeometry relative="1" as="geometry"/></mxCell><mxCell id="19" style="edgeStyle=none;rounded=0;orthogonalLoop=1;jettySize=auto;html=1;entryX=0;entryY=0.5;entryDx=0;entryDy=0;endArrow=none;endFill=0;" parent="1" source="XecausT98CZ5SgeFrqNB-5" target="18" edge="1"><mxGeometry relative="1" as="geometry"/></mxCell><mxCell id="XecausT98CZ5SgeFrqNB-5" value="Unternehmen" style="shape=umlActor;verticalLabelPosition=bottom;verticalAlign=top;html=1;outlineConnect=0;" parent="1" vertex="1"><mxGeometry x="30" y="390" width="30" height="70" as="geometry"/></mxCell><mxCell id="XecausT98CZ5SgeFrqNB-7" value="" style="endArrow=block;html=1;rounded=0;exitX=0.5;exitY=0;exitDx=0;exitDy=0;exitPerimeter=0;endFill=0;endSize=17;" parent="1" source="XecausT98CZ5SgeFrqNB-5" edge="1"><mxGeometry width="50" height="50" relative="1" as="geometry"><mxPoint x="30" y="390" as="sourcePoint"/><mxPoint x="55" y="340" as="targetPoint"/></mxGeometry></mxCell><mxCell id="XecausT98CZ5SgeFrqNB-12" value="" style="endArrow=none;html=1;rounded=0;entryX=0;entryY=0.5;entryDx=0;entryDy=0;" parent="1" target="XecausT98CZ5SgeFrqNB-2" edge="1"><mxGeometry width="50" height="50" relative="1" as="geometry"><mxPoint x="70" y="420" as="sourcePoint"/><mxPoint x="200" y="360" as="targetPoint"/></mxGeometry></mxCell><mxCell id="XecausT98CZ5SgeFrqNB-13" value="" style="endArrow=none;html=1;rounded=0;entryX=0;entryY=0.5;entryDx=0;entryDy=0;" parent="1" source="XecausT98CZ5SgeFrqNB-3" target="XecausT98CZ5SgeFrqNB-14" edge="1"><mxGeometry width="50" height="50" relative="1" as="geometry"><mxPoint x="130" y="210" as="sourcePoint"/><mxPoint x="180" y="160" as="targetPoint"/></mxGeometry></mxCell><mxCell id="XecausT98CZ5SgeFrqNB-23" value="" style="endArrow=none;html=1;rounded=0;endSize=17;entryX=0.001;entryY=0.522;entryDx=0;entryDy=0;entryPerimeter=0;" parent="1" target="XecausT98CZ5SgeFrqNB-22" edge="1"><mxGeometry width="50" height="50" relative="1" as="geometry"><mxPoint x="80" y="280" as="sourcePoint"/><mxPoint x="160" y="310" as="targetPoint"/></mxGeometry></mxCell><mxCell id="XecausT98CZ5SgeFrqNB-24" value="" style="swimlane;startSize=0;" parent="1" vertex="1"><mxGeometry x="140" y="-30" width="750" height="810" as="geometry"/></mxCell><mxCell id="XecausT98CZ5SgeFrqNB-2" value="Unternehmen registrieren&amp;nbsp;" style="ellipse;whiteSpace=wrap;html=1;" parent="XecausT98CZ5SgeFrqNB-24" vertex="1"><mxGeometry x="274" y="400" width="120" height="80" as="geometry"/></mxCell><mxCell id="XecausT98CZ5SgeFrqNB-14" value="Student registrieren&amp;nbsp;" style="ellipse;whiteSpace=wrap;html=1;" parent="XecausT98CZ5SgeFrqNB-24" vertex="1"><mxGeometry x="40" y="180" width="140" height="80" as="geometry"/></mxCell><mxCell id="XecausT98CZ5SgeFrqNB-1" value="Benutzer registrieren" style="ellipse;whiteSpace=wrap;html=1;" parent="XecausT98CZ5SgeFrqNB-24" vertex="1"><mxGeometry x="230" y="250" width="150" height="60" as="geometry"/></mxCell><mxCell id="XecausT98CZ5SgeFrqNB-8" value="" style="endArrow=block;html=1;rounded=0;endFill=0;endSize=17;" parent="XecausT98CZ5SgeFrqNB-24" source="XecausT98CZ5SgeFrqNB-14" target="XecausT98CZ5SgeFrqNB-1" edge="1"><mxGeometry width="50" height="50" relative="1" as="geometry"><mxPoint x="290" y="150" as="sourcePoint"/><mxPoint x="230" y="190" as="targetPoint"/></mxGeometry></mxCell><mxCell id="XecausT98CZ5SgeFrqNB-15" value="" style="endArrow=block;html=1;rounded=0;exitX=0.5;exitY=0;exitDx=0;exitDy=0;entryX=0.5;entryY=1;entryDx=0;entryDy=0;endFill=0;endSize=17;" parent="XecausT98CZ5SgeFrqNB-24" source="XecausT98CZ5SgeFrqNB-2" target="XecausT98CZ5SgeFrqNB-1" edge="1"><mxGeometry width="50" height="50" relative="1" as="geometry"><mxPoint x="310" y="330" as="sourcePoint"/><mxPoint x="360" y="280" as="targetPoint"/></mxGeometry></mxCell><mxCell id="XecausT98CZ5SgeFrqNB-22" value="Login eines registrierten Benutzers&amp;nbsp;" style="ellipse;whiteSpace=wrap;html=1;" parent="XecausT98CZ5SgeFrqNB-24" vertex="1"><mxGeometry x="55" y="290" width="120" height="80" as="geometry"/></mxCell><mxCell id="2" value="Studentenprofil anlegen" style="ellipse;whiteSpace=wrap;html=1;" parent="XecausT98CZ5SgeFrqNB-24" vertex="1"><mxGeometry x="230" y="30" width="150" height="80" as="geometry"/></mxCell><mxCell id="3" value="Unternehmensprofil anlegen" style="ellipse;whiteSpace=wrap;html=1;" parent="XecausT98CZ5SgeFrqNB-24" vertex="1"><mxGeometry x="100" y="580" width="150" height="80" as="geometry"/></mxCell><mxCell id="6" value="Unternehmensprofil anzeigen lassen" style="ellipse;whiteSpace=wrap;html=1;" parent="XecausT98CZ5SgeFrqNB-24" vertex="1"><mxGeometry x="40" y="680" width="150" height="80" as="geometry"/></mxCell><mxCell id="18" value="Unternehmensprofil bearbeiten" style="ellipse;whiteSpace=wrap;html=1;" parent="XecausT98CZ5SgeFrqNB-24" vertex="1"><mxGeometry x="90" y="470" width="150" height="80" as="geometry"/></mxCell><mxCell id="20" value="Studentenprofil bearbeiten" style="ellipse;whiteSpace=wrap;html=1;" parent="XecausT98CZ5SgeFrqNB-24" vertex="1"><mxGeometry x="190" y="120" width="150" height="80" as="geometry"/></mxCell><mxCell id="21" value="Studentenprofil anzeigen lassen&amp;nbsp;" style="ellipse;whiteSpace=wrap;html=1;" parent="XecausT98CZ5SgeFrqNB-24" vertex="1"><mxGeometry x="15" y="20" width="150" height="80" as="geometry"/></mxCell><mxCell id="25" value="Stellenanzeige erstellen &amp;amp; veröffentlichen&amp;nbsp;" style="ellipse;whiteSpace=wrap;html=1;" parent="XecausT98CZ5SgeFrqNB-24" vertex="1"><mxGeometry x="420" y="370" width="160" height="70" as="geometry"/></mxCell><mxCell id="27" value="Nach Stellenanzeigen suchen und filtern" style="ellipse;whiteSpace=wrap;html=1;" parent="XecausT98CZ5SgeFrqNB-24" vertex="1"><mxGeometry x="450" y="210" width="160" height="70" as="geometry"/></mxCell><mxCell id="28" value="Auf Stellenanzeige bewerben" style="ellipse;whiteSpace=wrap;html=1;" parent="XecausT98CZ5SgeFrqNB-24" vertex="1"><mxGeometry x="410" y="125" width="180" height="70" as="geometry"/></mxCell><mxCell id="35" value="Über Kontaktmöglichkeit informieren" style="ellipse;whiteSpace=wrap;html=1;" parent="XecausT98CZ5SgeFrqNB-24" vertex="1"><mxGeometry x="520" y="670" width="160" height="70" as="geometry"/></mxCell><mxCell id="39" value="Stellenanzeige anzeigen lassen" style="ellipse;whiteSpace=wrap;html=1;" parent="XecausT98CZ5SgeFrqNB-24" vertex="1"><mxGeometry x="394" y="460" width="160" height="70" as="geometry"/></mxCell><mxCell id="40" value="Stellenanzeige bearbeiten" style="ellipse;whiteSpace=wrap;html=1;" parent="XecausT98CZ5SgeFrqNB-24" vertex="1"><mxGeometry x="550" y="530" width="160" height="70" as="geometry"/></mxCell><mxCell id="41" value="Stellenanzeige löschen" style="ellipse;whiteSpace=wrap;html=1;" parent="XecausT98CZ5SgeFrqNB-24" vertex="1"><mxGeometry x="370" y="585" width="160" height="70" as="geometry"/></mxCell><mxCell id="45" value="Bewerbung anzeigen lassen" style="ellipse;whiteSpace=wrap;html=1;" vertex="1" parent="XecausT98CZ5SgeFrqNB-24"><mxGeometry x="460" y="35" width="180" height="70" as="geometry"/></mxCell><mxCell id="47" value="Unternehmen bewerten" style="ellipse;whiteSpace=wrap;html=1;" vertex="1" parent="XecausT98CZ5SgeFrqNB-24"><mxGeometry x="510" y="290" width="160" height="70" as="geometry"/></mxCell><mxCell id="26" style="edgeStyle=none;rounded=0;orthogonalLoop=1;jettySize=auto;html=1;endArrow=none;endFill=0;" parent="1" source="24" target="25" edge="1"><mxGeometry relative="1" as="geometry"/></mxCell><mxCell id="42" style="edgeStyle=none;rounded=0;orthogonalLoop=1;jettySize=auto;html=1;endArrow=none;endFill=0;" parent="1" source="24" target="39" edge="1"><mxGeometry relative="1" as="geometry"/></mxCell><mxCell id="43" style="edgeStyle=none;rounded=0;orthogonalLoop=1;jettySize=auto;html=1;endArrow=none;endFill=0;" parent="1" source="24" target="40" edge="1"><mxGeometry relative="1" as="geometry"/></mxCell><mxCell id="44" style="edgeStyle=none;rounded=0;orthogonalLoop=1;jettySize=auto;html=1;endArrow=none;endFill=0;" parent="1" source="24" target="41" edge="1"><mxGeometry relative="1" as="geometry"/></mxCell><mxCell id="24" value="Unternehmen" style="shape=umlActor;verticalLabelPosition=bottom;verticalAlign=top;html=1;outlineConnect=0;" parent="1" vertex="1"><mxGeometry x="930" y="310" width="30" height="70" as="geometry"/></mxCell><mxCell id="30" style="edgeStyle=none;rounded=0;orthogonalLoop=1;jettySize=auto;html=1;endArrow=none;endFill=0;" parent="1" source="29" target="28" edge="1"><mxGeometry relative="1" as="geometry"/></mxCell><mxCell id="31" style="edgeStyle=none;rounded=0;orthogonalLoop=1;jettySize=auto;html=1;endArrow=none;endFill=0;" parent="1" source="29" target="27" edge="1"><mxGeometry relative="1" as="geometry"/></mxCell><mxCell id="48" style="edgeStyle=none;rounded=0;orthogonalLoop=1;jettySize=auto;html=1;endArrow=none;endFill=0;" edge="1" parent="1" source="29" target="47"><mxGeometry relative="1" as="geometry"/></mxCell><mxCell id="29" value="Student" style="shape=umlActor;verticalLabelPosition=bottom;verticalAlign=top;html=1;outlineConnect=0;" parent="1" vertex="1"><mxGeometry x="940" y="90" width="30" height="70" as="geometry"/></mxCell><mxCell id="36" style="edgeStyle=none;rounded=0;orthogonalLoop=1;jettySize=auto;html=1;endArrow=none;endFill=0;" parent="1" source="32" target="35" edge="1"><mxGeometry relative="1" as="geometry"/></mxCell><mxCell id="32" value="Flüchtling" style="shape=umlActor;verticalLabelPosition=bottom;verticalAlign=top;html=1;outlineConnect=0;" parent="1" vertex="1"><mxGeometry x="950" y="480" width="30" height="70" as="geometry"/></mxCell><mxCell id="46" style="rounded=0;orthogonalLoop=1;jettySize=auto;html=1;entryX=0.5;entryY=0.5;entryDx=0;entryDy=0;entryPerimeter=0;endArrow=none;endFill=0;" edge="1" parent="1" source="45" target="29"><mxGeometry relative="1" as="geometry"/></mxCell></root></mxGraphModel></diagram></mxfile>